<svg id="visual" viewBox="0 0 960 540" width="960" height="540" xmlns="http://www.w3.org/2000/svg" xmlns:xlink="http://www.w3.org/1999/xlink" version="1.1"><rect x="0" y="0" width="960" height="540" fill="#1a1a2e"></rect><path d="M669 540L665.7 528.8C662.3 517.7 655.7 495.3 656.3 472.8C657 450.3 665 427.7 665.8 405.2C666.7 382.7 660.3 360.3 657.7 337.8C655 315.3 656 292.7 653 270.2C650 247.7 643 225.3 643.2 202.8C643.3 180.3 650.7 157.7 661.3 135.2C672 112.7 686 90.3 685.8 67.8C685.7 45.3 671.3 22.7 664.2 11.3L657 0L960 0L960 11.3C960 22.7 960 45.3 960 67.8C960 90.3 960 112.7 960 135.2C960 157.7 960 180.3 960 202.8C960 225.3 960 247.7 960 270.2C960 292.7 960 315.3 960 337.8C960 360.3 960 382.7 960 405.2C960 427.7 960 450.3 960 472.8C960 495.3 960 517.7 960 528.8L960 540Z" fill="#16213e"></path><path d="M723 540L718.3 528.8C713.7 517.7 704.3 495.3 708.3 472.8C712.3 450.3 729.7 427.7 731.8 405.2C734 382.7 721 360.3 710 337.8C699 315.3 690 292.7 696.5 270.2C703 247.7 725 225.3 735.5 202.8C746 180.3 745 157.7 741 135.2C737 112.7 730 90.3 725 67.8C720 45.3 717 22.7 715.5 11.3L714 0L960 0L960 11.3C960 22.7 960 45.3 960 67.8C960 90.3 960 112.7 960 135.2C960 157.7 960 180.3 960 202.8C960 225.3 960 247.7 960 270.2C960 292.7 960 315.3 960 337.8C960 360.3 960 382.7 960 405.2C960 427.7 960 450.3 960 472.8C960 495.3 960 517.7 960 528.8L960 540Z" fill="#3b2a5b"></path><path d="M742 540L742.7 528.8C743.3 517.7 744.7 495.3 751.8 472.8C759 450.3 772 427.7 774.7 405.2C777.3 382.7 769.7 360.3 770 337.8C770.3 315.3 778.7 292.7 778 270.2C777.3 247.7 767.7 225.3 758.5 202.8C749.3 180.3 740.7 157.7 743.2 135.2C745.7 112.7 759.3 90.3 766.7 67.8C774 45.3 775 22.7 775.5 11.3L776 0L960 0L960 11.3C960 22.7 960 45.3 960 67.8C960 90.3 960 112.7 960 135.2C960 157.7 960 180.3 960 202.8C960 225.3 960 247.7 960 270.2C960 292.7 960 315.3 960 337.8C960 360.3 960 382.7 960 405.2C960 427.7 960 450.3 960 472.8C960 495.3 960 517.7 960 528.8L960 540Z" fill="#6d2a6c"></path><path d="M802 540L802.3 528.8C802.7 517.7 803.3 495.3 803.7 472.8C804 450.3 804 427.7 806.5 405.2C809 382.7 814 360.3 811.3 337.8C808.7 315.3 798.3 292.7 796.5 270.2C794.7 247.7 801.3 225.3 803.2 202.8C805 180.3 802 157.7 804.3 135.2C806.7 112.7 814.3 90.3 812.2 67.8C810 45.3 798 22.7 792 11.3L786 0L960 0L960 11.3C960 22.7 960 45.3 960 67.8C960 90.3 960 112.7 960 135.2C960 157.7 960 180.3 960 202.8C960 225.3 960 247.7 960 270.2C960 292.7 960 315.3 960 337.8C960 360.3 960 382.7 960 405.2C960 427.7 960 450.3 960 472.8C960 495.3 960 517.7 960 528.8L960 540Z" fill="#a31d6c"></path><path d="M841 540L841 528.8C841 517.7 841 495.3 844.3 472.8C847.7 450.3 854.3 427.7 855.7 405.2C857 382.7 853 360.3 850.5 337.8C848 315.3 847 292.7 848.5 270.2C850 247.7 854 225.3 857 202.8C860 180.3 862 157.7 862.8 135.2C863.7 112.7 863.3 90.3 859 67.8C854.7 45.3 846.3 22.7 842.2 11.3L838 0L960 0L960 11.3C960 22.7 960 45.3 960 67.8C960 90.3 960 112.7 960 135.2C960 157.7 960 180.3 960 202.8C960 225.3 960 247.7 960 270.2C960 292.7 960 315.3 960 337.8C960 360.3 960 382.7 960 405.2C960 427.7 960 450.3 960 472.8C960 495.3 960 517.7 960 528.8L960 540Z" fill="#d20c5a"></path><path d="M892 540L891.8 528.8C891.7 517.7 891.3 495.3 890.5 472.8C889.7 450.3 888.3 427.7 887.3 405.2C886.3 382.7 885.7 360.3 886.5 337.8C887.3 315.3 889.7 292.7 892.8 270.2C896 247.7 900 225.3 901.3 202.8C902.7 180.3 901.3 157.7 897.8 135.2C894.3 112.7 888.7 90.3 886.3 67.8C884 45.3 885 22.7 885.5 11.3L886 0L960 0L960 11.3C960 22.7 960 45.3 960 67.8C960 90.3 960 112.7 960 135.2C960 157.7 960 180.3 960 202.8C960 225.3 960 247.7 960 270.2C960 292.7 960 315.3 960 337.8C960 360.3 960 382.7 960 405.2C960 427.7 960 450.3 960 472.8C960 495.3 960 517.7 960 528.8L960 540Z" fill="#f42c38"></path></svg>